# xmcd
#
# Track frame offsets:
#	150
#	14795
#	32641
#	46408
#
# Disc length: 805 seconds
#
# Revision: 1
# Processed by: cddbd v1.4PL0 Copyright (c) Steve Scherf et al.
# Submitted via: dBpowerAMP V4.0
#
DISCID=2e032304
DTITLE=Honeycomb - Honeycomb
DYEAR=2003
DGENRE=Rock
TTITLE0=I Wonder
TTITLE1=You And A Car
TTITLE2=Buddy
TTITLE3=Summertime
EXTD=Honeycomb EP from band.  \nSee www.honeycombandyou.com
EXTT0=
EXTT1=
EXTT2=
EXTT3=
PLAYORDER=
